<svg width="20" height="20" viewBox="0 0 20 20" fill="none" xmlns="http://www.w3.org/2000/svg">
<path d="M10 17.5C9.4625 17.0233 8.855 16.5275 8.2125 16H8.20417C5.94167 14.15 3.3775 12.0566 2.245 9.54829C1.87293 8.74973 1.67575 7.8809 1.66666 6.99996C1.66417 5.7912 2.14898 4.63245 3.01151 3.7856C3.87404 2.93875 5.04149 2.47529 6.25 2.49996C7.23386 2.50151 8.19653 2.78586 9.02333 3.31913C9.38664 3.55493 9.71535 3.84017 10 4.16663C10.2862 3.84145 10.615 3.55638 10.9775 3.31913C11.8039 2.78576 12.7664 2.50139 13.75 2.49996C14.9585 2.47529 16.126 2.93875 16.9885 3.7856C17.851 4.63245 18.3358 5.7912 18.3333 6.99996C18.3248 7.88231 18.1276 8.75262 17.755 9.55246C16.6225 12.0608 14.0592 14.1533 11.7967 16L11.7883 16.0066C11.145 16.5308 10.5383 17.0266 10.0008 17.5066L10 17.5ZM6.25 4.16663C5.47376 4.15691 4.72506 4.454 4.16667 4.99329C3.62866 5.52176 3.32796 6.24583 3.33326 6.99996C3.34277 7.64204 3.48819 8.27484 3.76 8.85663C4.29459 9.93888 5.01593 10.9183 5.89083 11.75C6.71667 12.5833 7.66667 13.39 8.48833 14.0683C8.71583 14.2558 8.9475 14.445 9.17917 14.6341L9.325 14.7533C9.5475 14.935 9.7775 15.1233 10 15.3083L10.0108 15.2983L10.0158 15.2941H10.0208L10.0283 15.2883H10.0325H10.0367L10.0517 15.2758L10.0858 15.2483L10.0917 15.2433L10.1008 15.2366H10.1058L10.1133 15.23L10.6667 14.7758L10.8117 14.6566C11.0458 14.4658 11.2775 14.2766 11.505 14.0891C12.3267 13.4108 13.2775 12.605 14.1033 11.7675C14.9784 10.9363 15.6997 9.95705 16.2342 8.87496C16.5109 8.28813 16.6584 7.64871 16.6667 6.99996C16.6701 6.24816 16.3696 5.52687 15.8333 4.99996C15.276 4.45823 14.5272 4.1587 13.75 4.16663C12.8016 4.15857 11.8949 4.5561 11.2583 5.25913L10 6.70913L8.74167 5.25913C8.10505 4.5561 7.1984 4.15857 6.25 4.16663Z" fill="#303030"/>
</svg>
