<svg width="20" height="20" viewBox="0 0 20 20" fill="none" xmlns="http://www.w3.org/2000/svg">
<path fill-rule="evenodd" clip-rule="evenodd" d="M11.6667 4.58335C11.6667 2.97252 12.9725 1.66669 14.5833 1.66669C16.1942 1.66669 17.5 2.97252 17.5 4.58335C17.5 6.19417 16.1942 7.50002 14.5833 7.50002C13.769 7.50002 13.0327 7.16632 12.5036 6.62822L8.22756 9.2189C8.29649 9.46751 8.33333 9.72946 8.33333 10C8.33333 10.2431 8.3036 10.4792 8.24758 10.7049L12.6009 13.2773C13.1212 12.7949 13.8178 12.5 14.5833 12.5C16.1942 12.5 17.5 13.8059 17.5 15.4167C17.5 17.0275 16.1942 18.3334 14.5833 18.3334C12.9725 18.3334 11.6667 17.0275 11.6667 15.4167C11.6667 15.1737 11.6964 14.9376 11.7524 14.7119L7.39908 12.1394C6.87875 12.6218 6.18214 12.9167 5.41667 12.9167C3.80585 12.9167 2.5 11.6108 2.5 10C2.5 8.3892 3.80585 7.08335 5.41667 7.08335C6.15373 7.08335 6.82695 7.35676 7.34042 7.80769L11.7222 5.1529C11.6858 4.9687 11.6667 4.77826 11.6667 4.58335ZM14.5833 3.33335C13.893 3.33335 13.3333 3.893 13.3333 4.58335C13.3333 5.2737 13.893 5.83335 14.5833 5.83335C15.2737 5.83335 15.8333 5.2737 15.8333 4.58335C15.8333 3.893 15.2737 3.33335 14.5833 3.33335ZM5.41667 8.75002C4.72632 8.75002 4.16667 9.30967 4.16667 10C4.16667 10.6904 4.72632 11.25 5.41667 11.25C6.10701 11.25 6.66667 10.6904 6.66667 10C6.66667 9.30967 6.10701 8.75002 5.41667 8.75002ZM14.5833 14.1667C13.893 14.1667 13.3333 14.7263 13.3333 15.4167C13.3333 16.107 13.893 16.6667 14.5833 16.6667C15.2737 16.6667 15.8333 16.107 15.8333 15.4167C15.8333 14.7263 15.2737 14.1667 14.5833 14.1667Z" fill="#C9C9C9"/>
</svg>
